<?xml version="1.0" standalone="no"?>
<!DOCTYPE svg PUBLIC "-//W3C//DTD SVG 20010904//EN"
 "http://www.w3.org/TR/2001/REC-SVG-20010904/DTD/svg10.dtd">
<svg version="1.0" xmlns="http://www.w3.org/2000/svg"
 width="74.000000pt" height="74.000000pt" viewBox="0 0 74.000000 74.000000"
 preserveAspectRatio="xMidYMid meet">

<g transform="translate(0.000000,74.000000) scale(0.100000,-0.100000)"
fill="#000000" stroke="none">
<path d="M80 590 l0 -70 70 0 70 0 0 70 0 70 -70 0 -70 0 0 -70z m120 0 l0
-50 -50 0 -50 0 0 50 0 50 50 0 50 0 0 -50z"/>
<path d="M120 590 c0 -27 3 -30 30 -30 27 0 30 3 30 30 0 27 -3 30 -30 30 -27
0 -30 -3 -30 -30z"/>
<path d="M260 654 c0 -3 8 -13 17 -22 12 -12 18 -13 21 -4 2 6 8 12 13 12 15
0 10 -30 -7 -47 -13 -14 -17 -14 -24 -2 -5 7 -12 10 -16 7 -3 -4 1 -15 11 -24
14 -14 18 -15 25 -3 5 7 12 10 16 7 6 -6 -39 -58 -51 -58 -3 0 -5 9 -5 20 0
11 -4 20 -10 20 -14 0 -12 -38 2 -42 9 -3 7 -10 -6 -24 -14 -13 -21 -15 -24
-6 -4 14 -42 16 -42 2 0 -5 9 -10 20 -10 11 0 20 -4 20 -8 0 -4 -9 -14 -20
-22 -24 -17 -26 -50 -4 -50 9 0 26 -10 37 -22 13 -16 21 -19 24 -10 3 6 13 12
24 12 12 0 19 7 19 20 0 15 7 20 26 20 34 0 63 28 43 41 -12 8 -12 10 1 19 13
9 13 11 1 19 -12 8 -12 12 2 25 21 21 27 20 27 -4 0 -13 7 -20 20 -20 11 0 20
-4 20 -10 0 -5 9 -10 20 -10 11 0 20 -4 20 -10 0 -5 -4 -10 -10 -10 -5 0 -10
-18 -10 -40 0 -38 2 -40 30 -40 17 0 30 5 30 10 0 6 9 10 19 10 11 0 22 6 24
13 4 9 8 8 16 -3 5 -8 13 -11 18 -7 4 5 1 12 -7 17 -8 5 -11 12 -7 16 4 4 15
-3 26 -14 19 -23 51 -30 51 -12 0 6 -4 10 -10 10 -14 0 -12 38 3 43 7 2 8 8 3
13 -5 5 -11 4 -13 -3 -5 -15 -43 -17 -43 -3 0 6 -4 10 -10 10 -5 0 -10 -7 -10
-16 0 -38 -57 -58 -86 -30 -20 21 -18 26 12 26 27 0 61 26 50 38 -4 3 -11 0
-16 -7 -7 -12 -11 -12 -24 2 -9 8 -16 21 -16 27 0 6 -7 18 -15 27 -14 14 -18
13 -35 -7 l-20 -23 -20 23 -20 23 -19 -21 c-24 -29 -31 -28 -31 4 0 28 21 54
43 54 9 0 18 6 21 13 5 10 7 10 12 0 10 -23 24 -13 24 17 0 35 -10 38 -30 10
-8 -11 -22 -20 -32 -20 -10 0 -18 -4 -18 -10 0 -5 -4 -10 -10 -10 -5 0 -10 14
-10 30 0 23 -5 30 -19 30 -11 0 -22 -6 -25 -12 -5 -10 -7 -10 -12 0 -6 12 -24
17 -24 6z m75 -139 c14 -13 25 -27 25 -30 0 -11 -39 -4 -43 8 -2 6 -8 9 -12 5
-5 -5 2 -17 15 -28 13 -11 20 -23 16 -27 -4 -4 -12 -1 -17 7 -8 11 -12 12 -16
3 -8 -20 -23 -15 -23 7 0 11 -4 20 -10 20 -5 0 -10 -9 -10 -20 0 -11 5 -20 10
-20 6 0 10 -9 10 -20 0 -13 -7 -20 -20 -20 -11 0 -20 5 -20 10 0 6 -9 10 -20
10 -11 0 -20 5 -20 10 0 6 9 10 20 10 11 0 20 7 20 15 0 12 56 81 68 84 2 1
14 -10 27 -24z m145 6 c0 -11 6 -21 13 -24 7 -2 8 -8 3 -13 -5 -5 -11 -4 -13
4 -3 6 -13 12 -24 12 -22 0 -24 6 -6 25 17 20 27 18 27 -4z"/>
<path d="M360 650 c0 -5 5 -10 10 -10 6 0 10 5 10 10 0 6 -4 10 -10 10 -5 0
-10 -4 -10 -10z"/>
<path d="M460 654 c0 -7 27 -34 34 -34 3 0 6 9 6 20 0 13 -7 20 -20 20 -11 0
-20 -3 -20 -6z"/>
<path d="M520 590 l0 -70 70 0 70 0 0 70 0 70 -70 0 -70 0 0 -70z m120 0 l0
-50 -50 0 -50 0 0 50 0 50 50 0 50 0 0 -50z"/>
<path d="M560 590 c0 -27 3 -30 30 -30 27 0 30 3 30 30 0 27 -3 30 -30 30 -27
0 -30 -3 -30 -30z"/>
<path d="M460 590 c0 -5 5 -10 10 -10 6 0 10 5 10 10 0 6 -4 10 -10 10 -5 0
-10 -4 -10 -10z"/>
<path d="M420 570 c0 -5 5 -10 10 -10 6 0 10 5 10 10 0 6 -4 10 -10 10 -5 0
-10 -4 -10 -10z"/>
<path d="M80 490 c0 -5 5 -10 10 -10 6 0 10 -9 10 -20 0 -11 -4 -20 -10 -20
-5 0 -10 -13 -10 -30 0 -16 5 -30 10 -30 6 0 10 14 10 30 0 17 5 30 10 30 6 0
10 -4 10 -10 0 -5 9 -10 20 -10 17 0 20 7 20 40 0 22 -4 40 -10 40 -5 0 -10
-9 -10 -20 0 -11 -4 -20 -8 -20 -4 0 -14 9 -22 20 -15 21 -30 26 -30 10z"/>
<path d="M400 465 c0 -18 -64 -85 -80 -85 -7 0 -29 -18 -50 -40 -21 -22 -46
-40 -54 -40 -19 0 -21 16 -3 23 9 4 8 8 -3 17 -11 9 -12 13 -2 17 19 7 14 23
-7 23 -11 0 -22 6 -24 13 -4 9 -8 8 -16 -3 -10 -13 -12 -13 -20 0 -6 8 -13 11
-18 7 -4 -5 -1 -12 7 -18 13 -8 13 -10 0 -18 -8 -6 -11 -14 -6 -18 5 -4 11 -2
13 5 3 6 11 12 20 12 18 0 48 -29 39 -38 -4 -3 -11 0 -16 8 -7 12 -13 10 -30
-10 -17 -19 -23 -22 -30 -11 -7 12 -11 11 -25 -3 -10 -9 -14 -20 -11 -24 4 -3
11 0 16 7 7 12 11 11 26 -3 14 -15 15 -19 3 -26 -7 -5 -10 -12 -6 -17 5 -4 12
-1 18 7 8 13 10 13 18 1 8 -12 12 -12 25 2 21 21 20 27 -4 27 -13 0 -20 7 -20
20 0 26 6 25 38 -7 17 -17 22 -28 14 -31 -17 -5 -15 -22 4 -22 22 0 53 -32 36
-38 -17 -5 -15 -22 4 -22 22 0 53 -32 36 -38 -6 -2 -12 -12 -12 -23 0 -12 -7
-19 -20 -19 -11 0 -20 -4 -20 -10 0 -5 18 -10 40 -10 22 0 40 5 40 10 0 14 37
12 43 -2 4 -10 8 -9 17 2 9 11 13 12 17 3 6 -15 43 -17 43 -3 0 6 9 10 20 10
11 0 20 -4 20 -10 0 -5 5 -10 10 -10 6 0 10 11 10 25 0 29 -40 75 -65 75 -8 0
-15 5 -15 10 0 6 -13 10 -30 10 -16 0 -30 -3 -30 -6 0 -16 33 -34 64 -34 29 0
36 -4 36 -20 0 -22 -35 -28 -43 -7 -4 9 -8 8 -16 -3 -8 -12 -13 -11 -31 9 -11
14 -23 21 -28 16 -4 -4 -1 -10 6 -12 19 -7 14 -23 -8 -23 -13 0 -20 7 -20 18
0 10 -9 24 -20 32 -11 8 -20 22 -20 32 0 11 7 18 20 18 11 0 20 -4 20 -10 0
-5 5 -10 10 -10 6 0 10 9 10 20 0 13 -7 20 -20 20 -26 0 -25 6 5 35 29 30 35
31 35 5 0 -13 7 -20 20 -20 12 0 20 -7 20 -16 0 -8 7 -22 15 -30 13 -14 17
-14 30 0 20 20 19 26 -5 26 -11 0 -20 5 -20 10 0 6 13 10 29 10 16 0 31 6 34
13 2 7 8 8 13 3 5 -5 4 -11 -3 -13 -18 -6 -17 -91 1 -109 17 -16 46 -19 46 -4
0 6 5 10 10 10 6 0 10 -9 10 -20 0 -15 7 -20 29 -20 16 0 31 6 34 13 2 7 8 8
13 3 5 -5 4 -11 -3 -13 -15 -5 -17 -43 -3 -43 6 0 10 9 10 19 0 11 6 22 13 24
9 4 8 8 -3 17 -11 9 -12 13 -2 17 6 2 12 13 12 23 0 10 -6 21 -12 24 -10 5
-10 7 0 12 19 9 14 24 -8 24 -11 0 -20 5 -20 10 0 6 9 10 20 10 16 0 20 7 20
30 0 17 -4 30 -10 30 -5 0 -10 9 -10 20 0 11 5 20 10 20 6 0 10 5 10 10 0 15
-97 13 -103 -2 -4 -10 -8 -9 -16 2 -5 8 -13 11 -17 8 -3 -4 1 -14 9 -23 17
-17 67 -21 67 -5 0 6 5 10 10 10 6 0 10 -9 10 -19 0 -11 6 -22 13 -25 10 -5
10 -7 0 -12 -7 -3 -13 -14 -13 -25 0 -10 -4 -19 -10 -19 -5 0 -10 -9 -10 -20
0 -11 5 -20 10 -20 6 0 10 -4 10 -10 0 -5 -9 -10 -20 -10 -16 0 -20 7 -20 30
0 26 -4 30 -26 30 -15 0 -35 10 -47 23 -13 15 -21 18 -24 10 -3 -8 -24 -13
-54 -13 -40 0 -49 3 -49 18 0 10 -9 24 -20 32 -11 8 -20 18 -20 22 0 4 9 8 20
8 12 0 20 -7 20 -16 0 -8 7 -22 15 -30 13 -14 17 -14 30 0 19 18 20 102 3 109
-10 4 -10 8 1 15 12 9 12 13 -2 26 -20 20 -27 20 -27 1z m6 -59 c13 -14 20
-66 8 -66 -14 0 -34 31 -34 54 0 30 5 32 26 12z m-100 -100 c19 -20 18 -26 -5
-26 -11 0 -21 6 -24 13 -2 7 -8 8 -13 3 -5 -5 -4 -11 4 -13 21 -8 14 -43 -8
-43 -22 0 -27 15 -7 23 9 4 9 8 -2 15 -12 8 -12 12 0 26 18 19 36 20 55 2z
m254 -96 c0 -27 -3 -30 -30 -30 -27 0 -30 3 -30 30 0 27 3 30 30 30 27 0 30
-3 30 -30z m80 -30 c0 -16 -7 -20 -30 -20 -16 0 -30 5 -30 10 0 6 9 10 20 10
11 0 20 5 20 10 0 6 5 10 10 10 6 0 10 -9 10 -20z m-260 -70 c0 -5 -4 -10 -10
-10 -5 0 -10 5 -10 10 0 6 5 10 10 10 6 0 10 -4 10 -10z m40 0 c0 -5 -4 -10
-10 -10 -5 0 -10 5 -10 10 0 6 5 10 10 10 6 0 10 -4 10 -10z"/>
<path d="M520 210 c0 -5 5 -10 10 -10 6 0 10 5 10 10 0 6 -4 10 -10 10 -5 0
-10 -4 -10 -10z"/>
<path d="M80 350 c0 -5 5 -10 10 -10 6 0 10 5 10 10 0 6 -4 10 -10 10 -5 0
-10 -4 -10 -10z"/>
<path d="M460 340 c0 -16 7 -20 30 -20 23 0 30 -4 30 -20 0 -15 7 -20 26 -20
27 0 61 26 50 38 -4 3 -12 0 -17 -8 -8 -11 -12 -12 -16 -2 -2 6 -12 12 -22 12
-9 0 -23 9 -31 20 -8 11 -22 20 -32 20 -11 0 -18 -7 -18 -20z"/>
<path d="M80 250 c0 -5 5 -10 10 -10 6 0 10 5 10 10 0 6 -4 10 -10 10 -5 0
-10 -4 -10 -10z"/>
<path d="M360 230 c0 -5 5 -10 10 -10 6 0 10 5 10 10 0 6 -4 10 -10 10 -5 0
-10 -4 -10 -10z"/>
<path d="M80 150 l0 -70 70 0 70 0 0 70 0 70 -70 0 -70 0 0 -70z m120 0 l0
-50 -50 0 -50 0 0 50 0 50 50 0 50 0 0 -50z"/>
<path d="M120 150 c0 -27 3 -30 30 -30 27 0 30 3 30 30 0 27 -3 30 -30 30 -27
0 -30 -3 -30 -30z"/>
<path d="M240 150 c0 -5 5 -10 10 -10 6 0 10 5 10 10 0 6 -4 10 -10 10 -5 0
-10 -4 -10 -10z"/>
<path d="M520 100 c0 -11 5 -20 10 -20 6 0 10 9 10 20 0 11 -4 20 -10 20 -5 0
-10 -9 -10 -20z"/>
<path d="M560 90 c0 -5 5 -10 10 -10 6 0 10 5 10 10 0 6 -4 10 -10 10 -5 0
-10 -4 -10 -10z"/>
</g>
</svg>
